<?xml version="1.0" standalone="no"?>
<!DOCTYPE svg PUBLIC "-//W3C//DTD SVG 20010904//EN"
 "http://www.w3.org/TR/2001/REC-SVG-20010904/DTD/svg10.dtd">
<svg version="1.0" xmlns="http://www.w3.org/2000/svg"
 width="920.000000pt" height="920.000000pt" viewBox="0 0 920.000000 920.000000"
 preserveAspectRatio="xMidYMid meet">
<metadata>
Created by potrace 1.14, written by Peter Selinger 2001-2017
</metadata>
<g transform="translate(0.000000,920.000000) scale(0.100000,-0.100000)"
fill="#000000" stroke="none">
<path d="M1290 9051 c0 -8 -3 -11 -7 -8 -3 4 -12 2 -20 -4 -10 -9 -13 -8 -13
1 0 10 -3 10 -14 1 -10 -9 -16 -9 -21 -1 -5 8 -10 8 -20 0 -10 -8 -14 -7 -18
2 -4 11 -6 11 -6 0 -1 -9 -6 -10 -20 -2 -13 7 -22 7 -26 0 -3 -5 -13 -10 -22
-10 -8 0 -28 -9 -44 -21 -16 -11 -29 -18 -29 -15 0 3 -10 -4 -22 -16 -13 -13
-22 -27 -20 -31 1 -5 -1 -6 -6 -3 -9 5 -63 -54 -59 -65 1 -4 -6 -16 -16 -27
-11 -12 -16 -26 -12 -31 3 -6 1 -11 -5 -11 -6 0 -9 -4 -6 -9 4 -5 1 -11 -5
-13 -6 -2 -12 -21 -13 -43 -2 -21 -7 -40 -13 -42 -5 -2 -8 -17 -7 -33 1 -17
-2 -33 -7 -36 -6 -3 -5 -12 2 -20 10 -12 10 -15 -1 -12 -8 2 -14 -1 -15 -7 0
-5 -4 -16 -8 -22 -5 -7 -5 -17 -2 -23 3 -5 0 -10 -7 -10 -8 0 -9 -3 -3 -8 14
-10 18 -35 4 -26 -8 4 -9 0 -4 -15 4 -14 2 -21 -7 -21 -10 0 -9 -3 2 -10 10
-6 11 -10 3 -10 -7 0 -13 -5 -13 -11 0 -5 6 -7 13 -3 9 6 8 4 -1 -8 -7 -9 -14
-32 -14 -50 0 -18 -5 -38 -10 -45 -5 -7 -7 -17 -3 -23 3 -5 1 -10 -6 -10 -7 0
-9 -3 -6 -7 4 -3 1 -13 -6 -21 -10 -13 -9 -14 3 -7 12 7 13 6 4 -6 -6 -8 -10
-24 -9 -36 1 -13 -1 -23 -4 -23 -3 0 -7 -19 -9 -43 -1 -23 -4 -51 -6 -62 -3
-11 -5 -30 -5 -43 -1 -13 -4 -21 -9 -18 -11 7 -11 -318 0 -325 9 -6 16 -39 23
-122 2 -20 7 -42 10 -47 3 -6 1 -10 -5 -10 -7 0 -8 -5 -3 -12 4 -7 8 -20 8
-28 0 -8 4 -21 8 -27 5 -8 3 -13 -5 -13 -10 0 -10 -2 1 -9 7 -5 10 -14 7 -20
-4 -6 -3 -11 3 -11 6 0 8 -7 5 -15 -4 -8 -1 -21 5 -29 6 -7 8 -16 4 -19 -3 -4
0 -14 8 -24 12 -15 12 -16 -1 -8 -11 6 -10 3 2 -11 14 -16 15 -23 6 -32 -9 -9
-9 -12 0 -12 7 0 12 -5 12 -11 0 -5 -6 -7 -12 -3 -9 6 -9 3 0 -9 8 -9 11 -21
8 -26 -4 -5 -2 -12 4 -16 6 -4 8 -11 5 -16 -4 -5 -1 -9 6 -9 8 0 8 -4 -1 -15
-10 -12 -9 -16 4 -21 9 -3 13 -10 10 -16 -3 -5 2 -16 12 -24 11 -9 13 -12 5
-8 -11 5 -13 3 -8 -10 4 -10 7 -24 7 -32 0 -9 5 -12 11 -8 8 5 9 2 1 -12 -7
-13 -6 -24 5 -41 8 -13 12 -23 8 -23 -5 0 0 -10 11 -22 10 -12 13 -18 6 -14
-11 6 -11 4 -3 -10 19 -36 50 -132 44 -138 -4 -3 -1 -6 6 -6 8 0 11 -8 8 -20
-3 -11 -2 -20 3 -20 4 0 7 -6 7 -12 -2 -18 34 -98 43 -98 4 0 6 -11 5 -24 -2
-19 1 -23 12 -19 13 5 13 3 4 -16 -10 -17 -9 -22 4 -27 8 -3 12 -10 9 -15 -3
-5 0 -9 6 -9 6 0 8 -4 5 -10 -3 -5 -2 -10 4 -10 5 0 8 -9 6 -20 -2 -11 0 -20
6 -20 5 0 9 -7 9 -16 0 -8 5 -12 10 -9 9 6 14 -8 11 -27 0 -5 3 -8 8 -8 5 0
11 -12 14 -27 3 -16 17 -45 31 -66 15 -21 21 -35 14 -31 -10 6 -10 4 0 -8 16
-19 24 -58 13 -58 -5 0 -12 -21 -16 -47 -5 -27 -10 -55 -12 -63 -2 -8 -5 -21
-5 -27 -1 -7 -5 -13 -10 -13 -4 0 -7 -3 -7 -7 1 -5 0 -10 -1 -13 -2 -5 -7 -29
-13 -52 -1 -7 -6 -18 -9 -23 -4 -6 -5 -23 -4 -38 2 -15 0 -27 -4 -27 -5 0 -7
-8 -5 -17 1 -10 -1 -26 -6 -35 -6 -11 -5 -18 4 -21 9 -4 9 -6 -1 -6 -7 -1 -10
-5 -7 -11 3 -5 1 -10 -4 -10 -6 0 -11 -5 -11 -11 0 -5 5 -7 11 -3 6 3 3 -6 -7
-22 -11 -15 -14 -25 -7 -21 8 5 8 -1 -2 -19 -8 -15 -11 -32 -8 -37 3 -5 -1
-13 -8 -18 -12 -7 -12 -9 0 -9 11 0 11 -3 0 -17 -10 -11 -10 -14 -1 -9 6 4 12
3 12 -3 0 -5 -5 -13 -11 -17 -8 -4 -7 -9 2 -15 12 -7 12 -9 0 -9 -11 0 -11 -3
0 -17 12 -14 12 -16 0 -8 -11 6 -13 3 -7 -19 4 -18 2 -26 -6 -26 -9 0 -8 -3 2
-10 12 -7 12 -10 1 -10 -7 0 -11 -6 -8 -14 3 -7 0 -19 -6 -25 -9 -9 -8 -14 3
-21 10 -7 12 -12 4 -17 -6 -5 -10 -18 -9 -30 1 -13 -2 -23 -7 -23 -5 0 -4 -9
2 -20 7 -13 7 -20 1 -20 -6 0 -8 -7 -5 -15 4 -8 1 -22 -5 -29 -9 -11 -9 -16 0
-21 8 -6 7 -10 -2 -16 -11 -7 -11 -9 -1 -9 8 0 10 -5 5 -12 -12 -20 -12 -39
-1 -32 6 4 5 -2 -1 -15 -9 -16 -9 -21 1 -21 10 0 10 -2 0 -9 -15 -9 -15 -20
-1 -38 7 -7 5 -13 -3 -16 -10 -4 -10 -6 1 -6 11 -1 11 -4 0 -18 -10 -11 -10
-14 -1 -9 13 8 17 -6 5 -18 -4 -3 -8 -16 -10 -27 -2 -14 1 -18 9 -13 9 5 9 2
-1 -9 -10 -13 -10 -17 -1 -17 10 0 10 -3 0 -15 -10 -12 -10 -15 1 -15 11 0 11
-2 0 -9 -12 -8 -12 -12 -2 -24 8 -11 9 -17 1 -22 -8 -5 -8 -11 1 -21 6 -8 8
-14 4 -14 -4 0 -1 -8 6 -17 8 -9 9 -14 2 -10 -6 4 -13 1 -16 -5 -5 -18 4 -49
13 -43 4 2 5 -7 2 -20 -2 -15 0 -25 7 -25 6 0 11 -5 11 -11 0 -5 -6 -7 -12 -3
-10 6 -10 4 -1 -7 17 -17 17 -52 1 -44 -7 4 -6 1 2 -7 9 -7 14 -21 12 -32 -3
-13 0 -16 10 -11 10 6 11 5 1 -6 -17 -17 -17 -32 -1 -23 11 6 11 4 1 -7 -15
-15 -17 -33 -4 -25 5 3 9 -5 9 -19 0 -14 -4 -22 -9 -19 -5 3 -6 -2 -3 -10 3
-9 11 -13 18 -9 7 4 7 2 -1 -7 -8 -9 -9 -19 -2 -31 5 -10 9 -22 8 -26 -1 -4 0
-10 1 -13 1 -3 4 -23 5 -44 2 -21 8 -42 13 -45 4 -3 8 -18 7 -34 -1 -15 4 -39
11 -53 8 -15 9 -22 2 -18 -7 5 -8 2 -2 -7 9 -14 14 -34 16 -56 1 -7 5 -13 10
-13 4 0 8 -11 8 -25 0 -14 3 -25 8 -25 4 0 8 -16 9 -36 1 -19 7 -42 14 -50 6
-8 9 -14 5 -14 -4 0 3 -19 15 -43 12 -23 21 -43 20 -45 -6 -7 12 -62 20 -62 6
0 8 -4 5 -9 -3 -5 1 -14 9 -21 8 -7 15 -18 15 -24 0 -6 -5 -4 -10 4 -5 8 -10
11 -10 7 0 -5 10 -23 22 -40 12 -17 17 -27 10 -23 -7 4 -12 2 -12 -3 0 -6 5
-11 10 -11 6 0 10 -8 10 -17 0 -9 8 -25 18 -36 12 -15 13 -18 2 -12 -13 8 -13
6 -2 -8 8 -9 11 -21 7 -27 -3 -5 -1 -10 4 -10 6 0 11 -12 11 -26 0 -17 4 -23
12 -18 8 5 9 2 5 -9 -3 -10 -2 -17 4 -17 6 0 7 -4 4 -10 -3 -5 -1 -10 6 -10 8
0 8 -4 -1 -16 -11 -12 -11 -15 1 -12 9 2 13 -4 11 -14 -2 -10 2 -18 8 -18 6 0
8 -4 5 -10 -3 -5 -2 -10 4 -10 5 0 20 -17 32 -37 13 -21 29 -42 36 -46 7 -4
13 -15 13 -22 0 -8 5 -15 10 -15 6 0 10 -6 10 -14 0 -8 9 -18 20 -21 11 -3 20
-13 20 -20 0 -8 11 -17 25 -21 14 -3 23 -9 21 -13 -5 -8 34 -13 118 -15 38 -1
61 -6 64 -14 2 -6 9 -9 14 -6 6 4 8 2 4 -4 -3 -6 -2 -13 3 -16 10 -7 9 -25 -2
-43 -5 -8 -3 -13 4 -13 8 0 7 -5 -2 -17 -12 -15 -12 -16 1 -8 13 8 13 7 1 -8
-9 -12 -10 -17 -2 -17 7 0 9 -5 4 -12 -11 -18 -10 -197 1 -190 5 3 7 -2 3 -11
-3 -9 -2 -19 4 -23 6 -4 6 -11 -2 -20 -6 -8 -8 -14 -3 -14 5 0 8 -75 8 -168
-1 -92 3 -172 8 -179 6 -7 5 -14 -2 -18 -6 -3 -7 -11 -4 -17 7 -11 15 -69 17
-115 1 -13 3 -23 7 -23 3 0 6 -17 6 -38 6 -178 15 -314 23 -347 5 -22 11 -49
14 -60 10 -43 20 -112 23 -165 5 -62 9 -88 17 -110 3 -8 9 -28 13 -45 4 -16 9
-37 11 -45 3 -8 5 -35 6 -60 1 -25 6 -51 11 -59 6 -10 6 -12 -3 -6 -10 5 -10
3 0 -13 11 -17 5 -27 -60 -91 -39 -40 -69 -76 -66 -81 3 -4 -2 -11 -11 -14 -9
-4 -14 -13 -10 -21 3 -8 1 -15 -3 -15 -5 0 -8 -8 -6 -17 1 -10 -1 -22 -5 -28
-8 -11 -9 -19 -13 -77 -1 -21 -6 -38 -12 -38 -5 0 -3 -5 5 -10 13 -9 13 -10 0
-10 -9 0 -11 -3 -5 -8 6 -4 11 -25 11 -47 1 -22 3 -64 6 -93 2 -28 0 -52 -4
-52 -4 0 -8 -7 -8 -16 0 -9 -5 -12 -12 -8 -8 5 -9 2 -5 -9 3 -10 2 -17 -4 -17
-6 0 -7 -4 -4 -10 3 -5 1 -10 -4 -10 -6 0 -11 -5 -11 -11 0 -5 6 -7 13 -3 7 4
9 3 4 -2 -5 -5 -14 -9 -20 -9 -7 -1 -11 -7 -9 -14 1 -7 -6 -24 -16 -39 -11
-15 -23 -37 -26 -49 -4 -13 -11 -23 -16 -23 -5 0 -7 -7 -4 -15 3 -8 0 -17 -8
-20 -8 -3 -15 -11 -16 -18 -1 -24 -29 -87 -35 -81 -3 3 -3 -4 0 -17 4 -15 3
-20 -5 -15 -8 5 -13 -1 -14 -16 0 -13 -2 -29 -2 -36 -1 -7 -8 -17 -16 -22 -13
-9 -13 -10 0 -10 13 0 13 -1 0 -10 -8 -5 -11 -10 -6 -10 5 0 3 -7 -4 -15 -7
-8 -9 -15 -4 -15 5 0 2 -5 -6 -10 -13 -9 -13 -10 0 -10 11 0 10 -3 -4 -11 -15
-9 -16 -13 -5 -20 10 -6 11 -9 2 -9 -7 0 -13 -7 -13 -16 0 -9 -5 -12 -12 -8
-9 5 -9 2 1 -9 7 -9 10 -17 5 -17 -5 0 -10 -18 -10 -40 -1 -27 2 -38 10 -33 7
4 6 1 -1 -9 -7 -8 -10 -18 -6 -21 3 -4 1449 -7 3212 -7 1792 0 3200 4 3192 9
-9 6 -10 11 -2 15 6 4 8 12 5 18 -4 6 -8 31 -10 57 -6 68 -7 71 -14 71 -3 0
-7 10 -7 22 -1 13 -6 32 -11 43 -17 37 -32 91 -32 113 0 12 -4 22 -9 22 -7 0
-31 72 -35 105 -1 5 -7 16 -14 24 -7 7 -11 19 -8 26 3 8 -2 16 -9 19 -8 3 -12
14 -10 26 2 11 0 20 -6 20 -5 0 -9 7 -9 16 0 9 -5 12 -12 8 -7 -5 -8 -3 -3 6
5 8 1 18 -10 27 -11 7 -15 13 -9 13 5 0 2 5 -6 10 -11 7 -12 10 -2 10 10 0 9
4 -2 16 -9 8 -13 20 -10 26 4 7 2 8 -4 4 -7 -4 -14 3 -18 19 -3 14 -10 25 -16
25 -5 0 -6 5 -3 10 3 6 1 10 -4 10 -6 0 -11 7 -11 15 0 9 -7 18 -15 21 -8 4
-15 13 -15 21 0 8 -10 24 -22 35 -13 11 -17 17 -10 13 6 -3 12 -2 12 4 0 5
-10 13 -21 16 -17 6 -19 9 -8 16 11 7 11 9 -3 9 -9 0 -20 5 -24 12 -4 7 -3 8
4 4 7 -4 12 -2 12 3 0 6 -6 11 -14 11 -14 0 -76 78 -91 115 -5 11 -9 33 -10
48 -1 15 -7 38 -13 50 -6 12 -16 37 -24 54 -7 18 -17 33 -21 33 -5 0 -6 4 -3
9 6 9 -82 103 -124 134 -14 10 -19 15 -12 12 16 -8 16 7 0 24 -10 11 -10 13 0
7 14 -9 15 -1 2 23 -7 14 -5 23 10 36 11 10 17 22 14 26 -3 5 0 9 7 9 7 0 9 3
6 7 -4 3 -1 13 6 21 10 13 9 14 -3 7 -12 -7 -13 -6 -3 7 7 8 10 18 6 21 -3 4
-2 7 4 7 6 0 9 9 6 20 -3 13 0 20 8 20 11 0 11 2 -1 10 -8 5 -10 10 -4 10 7 0
15 16 18 35 5 22 11 33 18 29 7 -4 8 -2 4 5 -4 6 -2 19 6 28 11 14 11 16 -2 8
-12 -6 -13 -5 -2 6 6 7 12 21 12 31 0 10 4 18 10 18 5 0 7 6 4 14 -3 8 0 24 6
36 6 12 14 45 16 72 2 28 15 88 28 132 14 45 24 100 22 123 -1 23 2 39 6 37 4
-3 9 2 9 10 2 17 5 33 9 41 1 3 4 10 5 15 1 6 4 12 5 15 1 3 3 9 4 14 0 5 4
13 8 17 4 4 3 13 -3 21 -9 10 -8 17 2 30 12 15 12 16 -1 8 -12 -7 -13 -6 -3 6
7 8 12 24 12 34 -1 25 4 47 14 63 5 6 6 16 2 21 -3 5 2 17 11 25 10 10 11 16
3 16 -9 0 -8 4 1 15 10 12 10 15 -1 15 -9 0 -10 3 -4 8 6 4 12 18 14 32 1 14
8 28 15 32 8 6 8 8 -1 8 -6 0 -10 8 -8 18 2 9 4 30 4 45 1 17 5 26 11 22 13
-8 8 18 -5 27 -6 4 -2 8 9 8 15 0 16 3 6 15 -7 8 -8 15 -3 15 5 0 10 17 11 37
2 20 7 42 12 48 6 7 7 15 3 18 -3 4 0 7 8 7 14 0 62 62 59 76 -1 4 4 10 10 14
7 4 14 22 16 40 2 17 6 36 9 41 4 5 1 9 -6 9 -9 0 -8 4 3 12 21 17 30 58 33
143 1 39 3 70 4 70 1 0 4 8 6 18 2 9 0 15 -4 12 -4 -2 -8 2 -8 10 0 8 4 12 9
9 13 -8 6 29 -7 38 -6 5 -5 8 4 8 11 0 11 3 0 17 -12 14 -12 16 1 11 13 -5 15
8 15 74 0 44 4 82 8 85 4 3 3 11 -3 18 -7 9 -8 15 -1 19 6 4 8 13 5 20 -3 8 0
17 5 21 6 3 8 11 5 17 -10 16 -10 88 0 88 4 0 1 11 -8 24 -9 14 -12 27 -8 30
4 2 7 29 7 60 -1 31 3 56 7 56 5 0 4 8 -1 18 -7 13 -7 22 0 29 8 8 8 13 0 17
-5 4 -8 13 -5 21 4 8 11 12 18 8 8 -5 8 -3 0 8 -13 16 -13 87 0 108 6 9 5 12
-2 7 -7 -4 -10 1 -9 14 1 11 4 20 8 20 10 0 5 34 -6 42 -6 5 -6 8 1 8 14 0 13
68 0 89 -6 10 -6 12 2 7 16 -10 15 7 -1 23 -6 8 -7 11 -1 8 6 -4 10 10 10 38
0 28 -4 42 -10 38 -6 -4 -5 1 3 10 11 14 11 17 0 17 -9 0 -10 3 -4 8 15 11 19
46 4 36 -8 -5 -9 -3 -3 7 14 24 16 51 2 43 -9 -5 -9 -2 1 9 11 14 11 17 0 17
-9 0 -10 3 -4 8 16 11 19 45 3 37 -10 -6 -11 -5 0 6 15 16 16 33 0 23 -7 -5
-8 -3 -2 7 12 20 13 59 1 59 -5 0 -4 7 3 15 10 12 10 18 -1 32 -8 9 -9 14 -3
11 6 -4 10 6 10 27 0 21 -4 31 -10 27 -6 -3 -5 1 2 10 10 12 10 18 1 23 -8 6
-7 10 2 16 11 7 11 9 -1 9 -13 0 -13 1 0 10 11 7 11 10 2 10 -10 0 -10 5 -2
20 9 16 8 22 -5 26 -14 6 -14 8 2 21 10 8 12 11 4 7 -11 -5 -13 -3 -8 9 3 9 2
19 -2 21 -5 3 -6 16 -4 30 3 13 0 27 -7 31 -8 5 -8 11 1 22 8 9 9 17 3 21 -15
11 -16 42 -2 60 7 9 8 13 2 9 -7 -4 -14 3 -16 17 -4 19 -1 23 10 18 14 -5 13
-2 0 17 -9 13 -14 30 -11 39 5 11 3 13 -8 7 -11 -6 -12 -5 -1 6 16 17 16 32 0
23 -8 -5 -8 -1 1 10 13 15 13 19 0 27 -12 7 -12 9 1 9 13 0 13 1 0 10 -13 9
-13 10 0 10 13 0 13 1 0 10 -13 9 -13 10 0 10 13 0 13 1 0 10 -8 5 -11 10 -7
10 4 0 3 9 -3 20 -8 15 -8 20 1 20 8 0 6 6 -4 18 -11 12 -13 22 -7 32 13 20
12 33 0 25 -7 -4 -9 5 -5 27 9 50 15 68 25 68 5 0 7 6 4 14 -3 7 2 16 11 20 9
3 13 10 10 16 -3 5 -2 10 3 10 9 0 11 9 15 55 1 14 6 25 10 25 5 0 6 4 3 9 -3
5 1 14 9 21 8 7 13 16 10 20 -3 5 -1 11 5 15 5 3 10 15 10 26 0 13 4 18 12 13
7 -4 8 -3 4 4 -4 6 -3 20 3 29 5 10 11 29 12 43 2 14 8 28 12 31 4 3 10 19 13
34 3 16 10 35 15 42 6 7 8 17 4 23 -3 5 -2 10 3 10 6 0 13 7 16 16 4 10 2 13
-7 8 -9 -6 -9 -5 0 8 7 8 10 18 6 21 -3 4 -1 7 5 7 6 0 9 6 6 14 -3 8 0 17 5
21 6 3 9 11 6 16 -4 5 -1 9 4 9 6 0 11 5 11 11 0 5 -6 7 -12 3 -7 -4 -5 2 5
13 9 11 14 23 10 26 -3 4 -1 7 6 7 9 0 9 5 1 20 -6 11 -7 20 -3 19 20 -3 27 2
13 11 -12 8 -12 10 -1 10 11 0 11 3 0 17 -12 14 -12 16 0 8 11 -6 13 -4 8 8
-3 10 -3 17 2 17 7 0 9 7 13 50 1 11 6 20 10 20 4 0 5 9 3 20 -2 11 0 18 5 15
5 -3 11 -1 15 5 3 5 1 10 -5 10 -6 0 -8 5 -5 11 4 6 7 26 7 45 0 19 7 41 15
49 8 8 10 15 4 15 -10 0 -7 32 5 52 8 13 11 28 18 88 2 19 4 35 6 35 1 0 3 18
5 40 7 87 15 147 19 154 10 15 24 163 30 303 1 38 6 71 9 75 4 3 1 13 -6 21
-7 10 -8 13 -1 9 8 -4 12 4 13 26 0 17 3 48 5 67 14 123 18 254 17 555 -2 433
-5 575 -11 575 -3 0 -7 10 -7 22 -1 13 -7 24 -13 26 -5 2 -10 10 -10 18 0 8
-4 14 -10 14 -5 0 -10 5 -10 10 0 14 -114 119 -132 121 -4 1 -13 2 -18 3 -6 0
-15 8 -20 16 -5 8 -10 11 -10 5 0 -5 -11 -10 -25 -10 -14 0 -25 4 -25 8 0 4
-9 3 -20 -3 -11 -6 -20 -7 -20 -2 0 10 -55 6 -72 -4 -7 -4 -8 -2 -4 4 5 9 1
10 -16 3 -13 -4 -31 -7 -40 -6 -10 2 -18 -1 -18 -7 0 -6 -7 -4 -17 3 -9 8 -14
9 -10 3 5 -8 -12 -14 -51 -20 -31 -4 -60 -7 -64 -6 -5 1 -8 -3 -8 -8 0 -6 -5
-10 -11 -10 -5 0 -8 4 -4 9 3 5 -9 3 -25 -6 -17 -8 -42 -13 -55 -11 -14 3 -23
1 -22 -6 1 -6 -4 -10 -12 -8 -7 1 -19 -2 -25 -8 -7 -5 -16 -7 -19 -3 -4 3 -7
1 -7 -6 0 -7 -5 -9 -10 -6 -6 4 -18 1 -27 -7 -14 -11 -16 -11 -8 2 5 9 -1 7
-15 -5 -13 -11 -20 -14 -16 -7 4 6 2 12 -3 12 -6 0 -11 -5 -11 -11 0 -6 -7 -8
-16 -5 -8 3 -12 2 -9 -3 3 -5 -20 -15 -50 -22 -30 -7 -55 -16 -55 -21 0 -5 -4
-6 -10 -3 -5 3 -10 2 -10 -4 0 -6 -7 -7 -17 -4 -10 4 -14 2 -10 -4 4 -6 -12
-9 -44 -9 -28 1 -53 -2 -56 -7 -3 -5 -9 -3 -14 4 -5 9 -9 9 -9 3 0 -11 -63
-30 -82 -26 -5 1 -8 -2 -8 -6 0 -7 -14 -10 -75 -16 -11 -1 -26 -5 -32 -9 -7
-5 -13 -5 -13 -1 0 4 -6 0 -13 -11 -10 -13 -16 -15 -21 -6 -6 9 -13 6 -27 -10
-13 -15 -19 -17 -19 -8 0 11 -2 11 -10 -1 -5 -8 -10 -11 -10 -6 0 5 -6 4 -12
-1 -7 -5 -23 -8 -35 -7 -13 0 -23 -3 -23 -7 0 -5 -9 -9 -20 -9 -11 0 -20 -4
-20 -9 0 -6 -9 -8 -20 -6 -11 2 -20 0 -20 -6 0 -5 -3 -8 -7 -7 -16 3 -63 -15
-63 -24 0 -5 -4 -6 -10 -3 -5 3 -10 2 -10 -4 0 -5 -9 -8 -20 -6 -11 2 -22 -1
-25 -6 -4 -5 -11 -7 -16 -4 -5 4 -9 1 -9 -4 0 -6 -3 -10 -7 -9 -12 3 -57 -14
-64 -24 -3 -5 -16 -10 -27 -11 -12 -1 -22 -5 -22 -9 0 -4 -3 -7 -7 -7 -25 4
-43 -2 -37 -13 5 -8 2 -9 -9 -5 -10 3 -17 2 -17 -3 0 -5 -7 -7 -15 -4 -8 4
-15 1 -15 -5 0 -6 -11 -11 -25 -11 -14 0 -28 -7 -31 -15 -4 -8 -10 -12 -15 -9
-5 3 -9 -1 -9 -8 0 -9 -3 -9 -10 2 -7 12 -10 12 -10 1 0 -7 -6 -11 -15 -7 -8
3 -15 1 -15 -4 0 -6 -9 -10 -21 -10 -11 0 -18 -4 -15 -9 4 -5 -4 -7 -16 -3
-16 4 -20 2 -16 -10 5 -11 0 -14 -19 -10 -20 4 -24 2 -18 -9 7 -11 5 -11 -11
1 -10 8 -22 20 -26 25 -5 6 -8 4 -8 -5 -1 -12 -3 -11 -11 3 -6 9 -14 15 -20
12 -5 -4 -9 -1 -9 5 0 7 -6 10 -14 7 -7 -3 -24 2 -37 10 -12 9 -19 11 -15 4 6
-9 3 -9 -13 1 -12 7 -21 16 -21 20 0 5 -5 8 -11 8 -5 0 -7 -6 -4 -12 4 -7 0
-5 -8 5 -10 12 -16 14 -19 6 -3 -9 -8 -8 -18 2 -8 8 -24 15 -35 16 -23 3 -59
11 -62 14 -2 1 -6 2 -10 3 -5 2 -26 8 -48 14 -22 6 -62 14 -90 16 -27 3 -75 8
-105 11 -30 3 -71 7 -90 10 -103 13 -120 13 -120 2 0 -8 -3 -8 -8 -2 -4 6 -18
11 -32 12 -14 1 -59 4 -100 8 -130 11 -539 8 -611 -5 -24 -4 -70 -11 -102 -15
-33 -3 -69 -10 -80 -14 -12 -4 -47 -9 -77 -10 -30 -1 -73 -7 -95 -13 -22 -5
-52 -10 -67 -10 -16 0 -28 -5 -28 -10 0 -6 -11 -8 -25 -6 -14 3 -25 1 -25 -5
0 -6 -3 -7 -7 -4 -3 4 -13 1 -21 -6 -13 -10 -14 -9 -8 1 7 12 4 12 -14 2 -12
-6 -24 -9 -27 -6 -3 3 -12 -2 -20 -12 -8 -9 -12 -11 -8 -5 4 9 1 11 -9 7 -9
-3 -16 -9 -16 -13 0 -4 -16 -7 -35 -6 -21 1 -32 -2 -28 -8 4 -6 0 -8 -9 -5 -8
4 -21 2 -29 -2 -8 -5 -19 -4 -28 3 -9 7 -12 8 -8 1 7 -11 -36 -37 -63 -39 -8
-1 -14 -7 -12 -15 2 -10 0 -11 -11 -2 -10 9 -16 9 -25 0 -7 -7 -12 -8 -12 -3
0 5 -7 0 -16 -11 -8 -10 -12 -12 -8 -4 7 12 5 13 -8 3 -8 -7 -18 -10 -21 -6
-4 3 -7 1 -7 -6 0 -8 -7 -11 -15 -7 -8 3 -15 0 -15 -6 0 -6 -8 -1 -19 10 -10
12 -26 22 -35 22 -11 0 -14 5 -10 12 5 8 2 9 -9 5 -11 -4 -17 -1 -17 9 0 8 -5
12 -10 9 -6 -3 -13 1 -16 9 -3 9 -10 16 -16 16 -5 0 -6 -6 -3 -12 4 -7 0 -5
-8 4 -8 10 -17 15 -20 11 -4 -3 -7 1 -7 9 0 9 -11 19 -25 22 -13 3 -44 20 -69
36 -24 17 -47 30 -51 30 -4 0 -19 9 -35 20 -15 11 -30 17 -34 13 -3 -3 -6 -1
-6 6 0 7 -4 9 -10 6 -5 -3 -10 -1 -10 4 0 6 -7 11 -15 11 -8 0 -15 5 -15 10 0
6 -7 10 -15 10 -8 0 -15 4 -15 9 0 6 -9 8 -20 6 -11 -2 -18 0 -15 6 4 5 -2 12
-12 15 -54 18 -73 28 -73 40 0 7 -6 11 -14 8 -8 -3 -17 0 -21 5 -3 6 -11 9
-16 6 -5 -4 -9 -2 -9 4 0 5 -9 8 -20 6 -11 -2 -18 0 -16 4 3 4 -18 18 -47 31
-29 13 -55 28 -59 34 -4 6 -8 8 -8 3 0 -4 -13 -1 -29 7 -16 9 -31 12 -35 9 -3
-4 -6 -1 -6 6 0 8 -7 11 -15 7 -8 -3 -15 -1 -15 4 0 6 -9 10 -21 10 -13 0 -18
4 -13 13 5 7 0 6 -11 -3 -11 -9 -16 -10 -11 -2 4 7 2 12 -6 13 -14 1 -29 5
-40 9 -5 1 -14 3 -20 4 -7 1 -12 7 -11 14 2 6 -4 9 -12 6 -8 -4 -26 1 -40 10
-14 9 -25 14 -25 10 0 -4 -8 0 -17 7 -11 10 -14 10 -9 2 4 -7 3 -13 -3 -13 -5
0 -13 5 -16 10 -4 6 -10 8 -15 5 -5 -3 -25 4 -45 15 -20 11 -40 18 -46 15 -5
-4 -9 -2 -9 4 0 6 -7 7 -17 4 -10 -4 -14 -2 -10 4 3 5 0 10 -8 10 -8 0 -11 -5
-8 -10 4 -6 1 -7 -8 -1 -8 4 -23 10 -34 11 -11 2 -41 10 -66 18 -46 16 -72 22
-119 30 -14 2 -36 7 -50 10 -14 3 -32 8 -40 10 -8 2 -15 4 -15 5 0 3 -52 13
-77 14 -16 0 -28 3 -28 6 0 3 -15 7 -32 7 -54 3 -82 8 -95 16 -8 5 -13 3 -13
-5 0 -9 -3 -9 -10 2 -7 11 -12 12 -21 3 -9 -9 -16 -9 -32 0 -15 9 -21 9 -24
-1 -4 -10 -9 -8 -19 5 -10 13 -13 14 -14 4z"/>
<path d="M7205 1501 c-3 -5 -2 -12 3 -15 5 -3 9 1 9 9 0 17 -3 19 -12 6z"/>
</g>
</svg>
